<svg width="646" height="628" viewBox="0 0 646 628" fill="none" xmlns="http://www.w3.org/2000/svg">
<path d="M223.572 232.412C223.36 232.138 222.225 232.225 223.223 231.49C223.323 231.802 223.435 232.126 223.535 232.437C224.383 232.425 224.807 232.836 224.77 233.697C230.958 237.512 232.019 244.046 233.666 250.267C231.37 244.382 227.066 239.569 224.82 233.659C224.396 233.248 223.984 232.824 223.56 232.412H223.572ZM218.581 227.438C215.213 225.842 211.956 224.096 209.823 220.879C213.316 222.313 217.508 222.837 218.569 227.463C219.829 227.3 221.002 227.413 221.601 228.747C221.688 228.934 221.339 229.57 221.189 229.57C219.767 229.57 219.168 228.51 218.594 227.438H218.581ZM256.074 241.165L255.999 241.24C255.999 241.24 256.049 241.19 256.074 241.165ZM188.699 303.495L188.637 303.558C188.637 303.558 188.675 303.52 188.687 303.495H188.699Z" fill="#61AFD2"/>
<path d="M281.739 196.204C281.926 196.229 282.089 196.217 282.238 196.217C282.238 196.241 282.213 196.254 282.213 196.279C282.201 196.279 282.201 196.291 282.201 196.291C282.001 196.279 281.789 196.241 281.589 196.204C281.639 196.204 281.689 196.217 281.739 196.204Z" fill="white"/>
<path d="M253.117 242.948C253.117 242.948 287.89 285.566 291.184 291.937C294.478 298.308 308.814 301.825 315.514 303.109C322.214 304.393 330.711 305.366 333.231 302.46C341.179 295.042 349.389 287.872 357.037 280.142C368.952 268.097 381.504 255.866 384.798 238.547C388.416 219.495 402.19 206.341 410.201 189.932C411.71 186.84 413.856 184.047 415.715 181.13C415.828 176.466 415.94 171.803 416.04 167.14C415.977 165.694 416.427 164.272 416.352 162.826C410.65 157.863 403.688 153.849 396.726 156.467C389.364 159.235 375.777 157.24 368.69 160.557C351.447 168.624 332.982 174.147 314.678 177.227C301.652 179.421 295.052 186.179 285.008 195.331C284.908 195.419 284.809 195.493 284.721 195.568C284.559 195.693 284.384 195.805 284.222 195.892C283.898 196.054 283.573 196.167 283.224 196.229C282.887 196.291 282.55 196.304 282.201 196.279C282.076 196.541 281.914 196.803 281.802 197.077C278.782 204.408 277.06 212.413 271.009 218.186C267.703 224.919 262.525 230.33 258.195 236.34C257.073 237.899 253.055 240.953 253.117 242.936V242.948Z" fill="white"/>
<path d="M289.45 123.787C291.92 143.325 301.453 149.909 315.639 156.43C318.646 156.766 320.779 155.183 322.601 153.15C324.996 150.47 327.704 149.909 330.898 151.467C339.657 155.744 346.768 153.337 352.757 146.156C355.128 143.313 357.623 140.595 360.069 137.814C361.803 135.545 363.437 133.188 365.309 131.031C372.708 122.515 374.791 112.566 373.394 101.643C372.857 99.6357 372.733 97.6158 372.758 95.5959C369.564 116.78 302.313 143.911 288.177 111.406C288.302 111.768 288.801 118.675 289.45 123.787Z" fill="#0B0B0B"/>
<path d="M288.177 111.406C302.313 143.911 370.187 118.762 372.758 95.5958C373.144 92.0922 373.344 87.7282 372.446 83.7757C369.052 68.8759 361.628 56.557 349.039 48.1034C336.487 39.6747 322.688 41.9066 309.088 45.8715C290.86 51.1831 285.931 57.8538 284.472 78.9005C283.735 89.586 284.821 100.92 288.177 111.406Z" fill="#3B3B3B"/>
<path d="M363.4 477.979C346.831 469.563 330.823 460.149 314.915 450.574C312.819 449.314 310.561 448.304 308.365 447.182C305.058 452.481 301.752 457.78 298.446 463.079C299.381 466.808 303.037 467.606 305.57 469.513C328.34 486.707 352.894 501.171 377.237 515.971C379.158 517.143 381.105 518.415 383.513 518.377C387.967 512.33 388.079 504.986 384.037 499.001C378.447 490.71 370.05 485.211 363.387 477.979H363.4Z" fill="#3B3B3B"/>
<path d="M282.238 196.217C282.238 196.217 282.213 196.254 282.213 196.279C282.064 196.266 281.901 196.241 281.739 196.204C281.926 196.229 282.089 196.217 282.238 196.217Z" fill="#61AFD2"/>
<path d="M199.642 207.55C208.949 195.718 215.1 181.628 225.631 170.606C230.896 165.083 236.224 159.622 237.933 151.654C238.382 149.597 240.104 147.652 241.614 145.981C252.256 134.211 264.87 124.847 278.333 116.58C281.09 114.897 284.072 111.88 288.177 111.406C288.913 115.034 301.452 149.909 315.626 156.43C314.329 156.679 312.994 156.841 314.578 158.562C318.221 162.539 322.214 166.255 326.893 168.836C332.208 171.766 338.209 172.539 343.3 168.437C353.044 160.607 360.293 151.193 360.069 137.814C361.803 135.545 363.437 133.188 365.309 131.031C372.708 122.515 374.791 112.565 373.394 101.643C375.415 102.117 377.461 102.454 379.433 103.064C387.268 105.483 396.663 106.606 404.112 110.421C412.134 106.68 451.886 111.967 467.282 113.151C484.612 114.486 497.226 114.486 511.762 118.8C520.832 121.493 529.267 127.066 535.343 134.473C546.21 147.714 554.22 162.714 560.671 178.536C561.881 181.479 562.33 186.566 560.234 188.149L523.839 202.339C521.506 203.099 519.485 201.092 517.875 199.521C508.979 190.818 500.545 181.778 495.043 170.369C493.92 168.025 493.034 164.01 489.141 165.444C484.849 167.028 484.637 165.868 482.005 164.16C480.245 164.484 466.833 168.973 461.156 172.09C457.213 174.26 452.422 174.634 448.704 171.404C444.986 168.175 423.8 175.506 415.715 181.142C417.063 173.287 416.426 164.285 416.352 162.838C410.65 157.876 403.887 157.365 396.925 159.983C389.564 162.751 382.09 165.332 374.654 167.751C353.456 174.634 338.733 176.903 320.43 179.983C307.404 182.177 291.484 188.96 285.008 195.344C277.784 202.476 276.848 211.366 270.984 220.044C265.694 227.886 262.525 230.343 258.195 236.353C257.072 237.911 255.064 241.951 254.602 242.312C249.012 245.854 243.573 249.544 238.532 253.908C230.247 261.065 221.776 268.047 212.992 274.581C202.985 282.012 194.713 290.69 189.76 302.261C189.398 302.66 189.061 303.084 188.712 303.495C188.712 303.495 180.165 311.4 176.871 312.572C173.578 313.744 133.078 293.259 133.939 287.012C134.8 280.765 185.081 226.079 199.642 207.55ZM494.257 140.233V140.146C494.257 140.146 494.219 140.171 494.207 140.183C494.194 140.233 494.194 140.283 494.182 140.333C494.207 140.295 494.232 140.27 494.257 140.233Z" fill="#61AFD2"/>
<path d="M254.964 433.592C262.55 429.215 264.546 421.385 259.693 414.602C255.076 408.156 248.588 403.779 242.238 399.266C235.275 400.238 229.012 397.034 222.424 395.824C215.799 394.603 201.825 381.922 195.262 380.376C194.002 380.077 194.738 389.603 193.765 390.725C207.951 402.495 228.887 413.904 243.585 424.976C247.378 427.831 251.158 430.724 254.951 433.592H254.964Z" fill="#3B3B3B"/>
<path d="M198.706 391.598C198.494 390.189 197.733 389.59 196.31 389.977C197.109 390.525 197.907 391.061 198.706 391.598Z" fill="#3B3B3B"/>
<path d="M189.76 302.249C189.386 302.685 189.024 303.121 188.65 303.545C189.76 303.732 189.76 302.997 189.76 302.249Z" fill="#FEE8E8"/>
<path d="M360.069 137.814C357.623 140.595 355.128 143.313 352.757 146.156C346.768 153.337 339.657 155.744 330.898 151.467C327.704 149.909 324.996 150.47 322.601 153.15C320.779 155.183 318.646 156.766 315.639 156.43C314.329 156.679 313.006 156.854 314.578 158.562C318.234 162.539 322.226 166.255 326.893 168.836C332.195 171.766 338.209 172.526 343.3 168.424C353.032 160.594 360.293 151.193 360.056 137.802L360.069 137.814Z" fill="white"/>
<path d="M223.535 232.45C223.435 232.138 223.323 231.814 223.223 231.502C222.225 232.225 223.36 232.151 223.572 232.425L223.547 232.462L223.535 232.45Z" fill="#3B3B3B"/>
<path d="M224.782 233.709C224.807 232.849 224.396 232.438 223.547 232.45L223.572 232.413C223.996 232.824 224.408 233.248 224.832 233.659L224.782 233.697V233.709Z" fill="#3B3B3B"/>
<path d="M523.839 202.339C523.839 203.984 529.803 207.288 529.928 210.069C530.053 212.849 531.188 231.851 535.243 242.1C539.136 251.938 548.244 263.422 552.898 254.993C553.983 260.117 555.194 263.758 558.438 263.758C562.019 263.758 562.842 259.743 562.805 254.382C565.699 254.793 567.77 253.846 568.793 250.704C571.189 251.714 574.595 250.267 576.23 245.679C583.94 247.001 584.452 232.101 581.245 223.36C577.951 214.371 561.345 200.83 560.846 198.548C560.334 196.266 560.746 190.219 560.846 188.037C560.97 185.12 546.398 185.568 537.14 189.097C526.859 193.012 523.839 200.693 523.839 202.339Z" fill="#3B3B3B"/>
<path d="M576.23 246.302C576.479 246.302 576.729 246.14 576.816 245.891C577.415 244.233 577.752 242.275 577.814 240.093C578.064 230.816 574.732 223.41 574.583 223.098C574.445 222.787 574.071 222.65 573.759 222.787C573.447 222.924 573.31 223.298 573.447 223.61C573.485 223.684 576.804 231.078 576.566 240.056C576.504 242.1 576.192 243.921 575.643 245.454C575.531 245.779 575.693 246.14 576.018 246.252C576.092 246.277 576.155 246.29 576.23 246.29V246.302Z" fill="#0B0B0B"/>
<path d="M568.793 251.327C569.055 251.327 569.305 251.165 569.392 250.903C570.091 248.771 570.316 245.841 570.079 241.938C569.505 232.076 566.136 224.208 566.098 224.133C565.961 223.822 565.587 223.672 565.275 223.809C564.963 223.946 564.813 224.308 564.951 224.632C564.988 224.707 568.269 232.387 568.831 242.013C569.055 245.704 568.831 248.559 568.195 250.504C568.082 250.828 568.269 251.177 568.594 251.29C568.656 251.315 568.719 251.315 568.793 251.315V251.327Z" fill="#0B0B0B"/>
<path d="M552.898 255.616C552.898 255.616 552.985 255.616 553.023 255.604C553.36 255.529 553.572 255.205 553.509 254.868C553.31 253.946 553.122 252.985 552.923 251.988C552.424 249.457 551.85 246.577 551.051 243.721C548.88 235.953 542.891 225.293 542.629 224.844C542.455 224.545 542.081 224.433 541.781 224.607C541.482 224.782 541.369 225.156 541.544 225.455C541.606 225.567 547.72 236.44 549.841 244.058C550.627 246.863 551.189 249.719 551.688 252.225C551.887 253.235 552.074 254.207 552.274 255.13C552.336 255.429 552.598 255.629 552.885 255.629L552.898 255.616Z" fill="#0B0B0B"/>
<path d="M562.805 255.005C563.154 255.005 563.428 254.719 563.428 254.382C563.428 252.063 563.241 249.569 563.067 246.926L562.992 245.866C562.355 236.889 558.176 225.792 558.138 225.679C558.013 225.355 557.652 225.193 557.327 225.318C557.003 225.443 556.841 225.804 556.965 226.128C557.003 226.241 561.12 237.175 561.744 245.966L561.819 247.026C562.006 249.656 562.168 252.138 562.181 254.407C562.181 254.756 562.468 255.03 562.805 255.03V255.005Z" fill="#0B0B0B"/>
<path d="M535.118 207.9C535.268 207.9 535.418 207.85 535.53 207.737C535.63 207.65 545.275 199.172 557.265 199.533C557.577 199.533 557.901 199.271 557.914 198.935C557.914 198.586 557.652 198.299 557.315 198.286C544.825 197.925 535.106 206.441 534.707 206.802C534.445 207.027 534.432 207.426 534.657 207.688C534.782 207.825 534.956 207.9 535.118 207.9Z" fill="#0B0B0B"/>
<path d="M490.813 162.464C490.813 162.464 490.826 162.464 490.838 162.464C491.188 162.452 491.45 162.153 491.437 161.816C490.352 136.63 506.908 126.655 507.083 126.555C507.382 126.381 507.482 125.994 507.308 125.707C507.133 125.42 506.746 125.308 506.459 125.483C506.285 125.583 489.079 135.906 490.202 161.866C490.214 162.203 490.489 162.464 490.826 162.464H490.813Z" fill="#0B0B0B"/>
<path d="M479.933 158.325C479.933 158.325 480.046 158.325 480.108 158.3C480.433 158.2 480.632 157.851 480.532 157.527C474.544 137.315 491.025 121.53 491.188 121.368C491.437 121.131 491.45 120.732 491.213 120.483C490.975 120.234 490.576 120.221 490.327 120.458C490.152 120.62 473.109 136.916 479.335 157.876C479.409 158.15 479.659 158.325 479.933 158.325Z" fill="#0B0B0B"/>
<path d="M416.04 179.222C416.352 179.222 416.626 178.985 416.664 178.661C416.701 178.349 420.02 146.492 406.932 114.648C406.807 114.324 406.433 114.174 406.121 114.311C405.796 114.436 405.647 114.81 405.784 115.122C418.747 146.667 415.466 178.212 415.428 178.524C415.391 178.86 415.64 179.172 415.977 179.21C416.002 179.21 416.027 179.21 416.052 179.21L416.04 179.222Z" fill="#0B0B0B"/>
<path d="M303.262 296.326C303.524 296.326 303.773 296.164 303.861 295.902C312.519 269.494 318.67 270.828 325.795 272.386L326.144 272.461C331.31 273.571 334.104 267.711 337.66 260.28C339.657 256.09 341.927 251.34 345.034 246.826C353.643 234.258 350.1 225.754 346.344 216.765L346.07 216.091C343.025 208.772 348.216 201.64 351.322 197.389C351.971 196.491 352.545 195.718 352.919 195.082C355.19 191.291 349.014 183.287 348.303 182.389C348.091 182.115 347.692 182.077 347.43 182.289C347.155 182.501 347.118 182.9 347.33 183.162C349.114 185.419 353.406 191.853 351.859 194.446C351.51 195.032 350.961 195.78 350.324 196.653C347.068 201.129 341.603 208.61 344.922 216.577L345.196 217.251C348.977 226.303 352.233 234.108 344.011 246.128C340.854 250.729 338.571 255.529 336.55 259.756C333.106 266.963 330.611 272.174 326.419 271.252L326.069 271.177C318.67 269.569 311.683 268.047 302.688 295.528C302.575 295.852 302.763 296.201 303.087 296.313C303.149 296.338 303.212 296.338 303.287 296.338L303.262 296.326Z" fill="#0B0B0B"/>
<path d="M271.009 218.822C271.171 218.822 271.346 218.759 271.471 218.622C271.608 218.473 284.684 203.922 281.415 176.429C278.158 148.986 261.24 133.251 261.065 133.101C260.816 132.864 260.416 132.889 260.179 133.138C259.942 133.388 259.967 133.787 260.217 134.024C260.379 134.173 276.961 149.622 280.167 176.591C283.361 203.485 270.672 217.65 270.535 217.799C270.298 218.049 270.323 218.448 270.572 218.685C270.697 218.797 270.847 218.847 270.997 218.847L271.009 218.822Z" fill="#0B0B0B"/>
<path d="M190.683 386.136C198.743 390.027 211.819 393.767 219.442 396.161C227.066 398.555 235.275 400.251 242.238 399.278C246.554 391.71 255.475 378.206 259.443 370.463C259.443 370.463 281.851 377.309 305.245 377.022C318.957 376.86 353.393 371.997 350.449 376.162C347.504 380.326 321.603 417.058 307.042 437.232C304.023 441.409 303.923 444.389 308.352 447.195C310.536 448.317 312.794 449.314 314.902 450.573C330.823 460.149 346.818 469.575 363.387 477.979C370.923 477.979 396.264 436.609 412.559 414.702C426.483 395.974 438.061 383.044 442.104 364.603C446.146 346.162 441.655 331.587 419.858 317.722C409.115 310.889 396.638 308.894 384.274 307.448C353.68 303.134 299.107 296.999 300.03 294.605C302.363 288.496 303.836 271.514 299.843 259.905C295.576 247.549 284.808 239.956 272.182 239.532C266.58 239.345 259.543 240.405 254.602 242.312C249.661 244.22 242.275 249.569 237.234 253.933C227.677 261.726 220.266 268.284 211.482 274.818C201.476 282.249 192.218 293.87 190.009 301.313C187.265 310.552 189.698 319.866 194.763 326.986C196.635 329.617 195.312 332.397 193.865 335.09C187.077 347.659 179.654 359.84 171.244 371.399C176.198 377.658 182.062 381.984 190.683 386.149V386.136Z" fill="#EB5757"/>
<path d="M350.449 376.773C350.649 376.773 350.836 376.685 350.961 376.511C359.919 363.843 370.325 359.042 377.474 357.259C385.234 355.314 390.949 356.374 391.011 356.387C391.348 356.449 391.672 356.237 391.747 355.888C391.81 355.551 391.598 355.227 391.248 355.152C391.011 355.102 367.567 350.863 349.95 375.788C349.75 376.074 349.813 376.461 350.1 376.66C350.212 376.735 350.337 376.773 350.462 376.773H350.449Z" fill="#D2001F"/>
<path d="M370.786 359.516C371.011 359.516 371.223 359.404 371.335 359.192C375.952 350.776 385.771 348.008 385.871 347.983C386.208 347.896 386.395 347.547 386.307 347.222C386.22 346.886 385.871 346.699 385.546 346.786C385.122 346.898 375.128 349.704 370.25 358.594C370.088 358.893 370.2 359.279 370.499 359.442C370.599 359.491 370.699 359.516 370.799 359.516H370.786Z" fill="#D2001F"/>
<path d="M259.443 371.087C259.655 371.087 259.855 370.987 259.967 370.8C261.452 368.444 296.275 312.909 300.642 294.755C300.716 294.418 300.517 294.082 300.18 294.007C299.843 293.932 299.506 294.132 299.431 294.468C295.114 312.423 259.268 369.566 258.907 370.139C258.719 370.426 258.807 370.813 259.106 371C259.206 371.062 259.318 371.1 259.443 371.1V371.087Z" fill="#D2001F"/>
<path d="M193.852 335.701C194.064 335.701 194.277 335.589 194.389 335.39C201.326 323.308 224.67 287.511 234.103 278.459C234.352 278.222 234.365 277.823 234.115 277.573C233.878 277.324 233.479 277.311 233.229 277.561C223.56 286.837 200.465 322.285 193.303 334.766C193.129 335.065 193.241 335.439 193.54 335.614C193.64 335.664 193.74 335.701 193.852 335.701Z" fill="#D2001F"/>
<path d="M221.601 293.508C221.601 293.508 221.626 293.508 221.651 293.508C222 293.483 222.25 293.184 222.225 292.835C221.526 283.246 224.096 278.359 224.121 278.309C224.283 278.01 224.171 277.623 223.872 277.461C223.572 277.299 223.198 277.411 223.023 277.71C222.911 277.922 220.241 282.922 220.977 292.922C221.002 293.246 221.277 293.495 221.601 293.495V293.508Z" fill="#D2001F"/>
<path d="M105.504 323.619C104.069 326.786 107.226 326.824 108.586 327.796C115.585 332.821 122.722 337.647 129.821 342.547C131.156 342.846 132.491 343.145 133.826 343.444C137.02 341.786 140.289 340.938 143.446 343.37C146.029 345.365 145.33 347.958 144.332 350.502C146.378 355.327 150.845 357.272 155.087 359.479C159.579 355.938 161.088 353.382 161.899 347.696C162.71 342.01 162.723 339.043 163.222 332.011C163.721 324.979 165.904 322.585 170.908 320.477C176.46 318.744 177.545 317.697 176.896 312.547C174.975 297.585 160.315 291.438 146.59 287.149C137.357 284.942 128.561 283.72 131.119 293.733C131.718 296.363 133.677 299.992 131.73 300.852C123.558 304.493 109.996 316.138 105.516 323.595L105.504 323.619Z" fill="#3B3B3B"/>
<path d="M121.2 334.829C121.387 334.829 121.562 334.741 121.686 334.592C122.972 332.958 127.576 331.487 129.235 331.051C129.572 330.963 129.771 330.627 129.684 330.29C129.597 329.953 129.26 329.754 128.923 329.841C128.661 329.904 122.51 331.512 120.701 333.806C120.489 334.081 120.539 334.467 120.801 334.679C120.913 334.766 121.05 334.816 121.187 334.816L121.2 334.829Z" fill="#0B0B0B"/>
<path d="M163.796 316.575C163.871 316.575 163.945 316.562 164.02 316.537C164.345 316.413 164.507 316.051 164.382 315.727C164.332 315.59 158.98 302.286 141.15 300.615C140.813 300.578 140.501 300.84 140.477 301.176C140.439 301.513 140.701 301.825 141.038 301.85C158.094 303.445 163.172 316.039 163.222 316.163C163.322 316.413 163.559 316.562 163.808 316.562L163.796 316.575Z" fill="#0B0B0B"/>
<path d="M111.356 328.033C111.543 328.033 111.73 327.946 111.842 327.796C113.589 325.552 118.617 323.17 118.667 323.146C118.979 322.996 119.116 322.622 118.967 322.31C118.817 321.998 118.455 321.861 118.131 322.011C117.919 322.111 112.791 324.554 110.857 327.023C110.645 327.298 110.694 327.684 110.969 327.896C111.081 327.983 111.218 328.033 111.356 328.033Z" fill="#0B0B0B"/>
<path d="M386.969 518.377C332.956 485.71 134.712 342.098 95.6972 316.874C56.6822 291.65 7.72314 296.413 1.68436 335.078C-4.35443 373.743 1.82156 388.131 90.5318 433.367C161.338 469.488 288.327 547.055 353.156 590.083C410.013 627.826 420.656 629.172 454.63 627.589C488.605 626.005 522.205 617.539 503.739 594.821C491.574 579.859 439.608 550.197 386.981 518.365L386.969 518.377Z" fill="#4497BC"/>
<path d="M365.995 598.512C376.201 605.083 384.71 610.232 392.109 614.26C403.55 594.684 416.838 568.313 424.324 540.82C413.095 534.075 401.354 527.068 389.551 519.936C387.617 542.404 381.778 571.779 365.995 598.512Z" fill="#61AFD2"/>
<path d="M77.2939 307.423C90.0452 331.175 113.177 382.309 118.068 447.943C124.282 451.322 130.732 454.888 137.37 458.603C141.026 434.152 144.893 388.842 133.739 342.946C116.608 330.963 103.196 321.724 95.6972 316.874C89.7333 313.021 83.5323 309.854 77.2939 307.423Z" fill="#61AFD2"/>
<path d="M197.009 387.533C206.317 416.273 220.79 465.773 226.255 510.447C244.583 521.494 262.774 532.629 280.042 543.364C284.846 523.464 287.978 491.021 278.395 444.838C251.533 426.036 223.26 406.074 197.009 387.533Z" fill="#61AFD2"/>
<path d="M233.678 250.903C233.678 250.903 233.791 250.903 233.841 250.878C234.177 250.791 234.365 250.442 234.277 250.118C234.227 249.943 229.187 232.226 210.147 220.356C209.86 220.168 209.473 220.268 209.286 220.555C209.099 220.842 209.199 221.228 209.486 221.415C228.101 233.011 233.03 250.28 233.079 250.442C233.154 250.716 233.404 250.903 233.678 250.903Z" fill="#0B0B0B"/>
<path d="M315.938 118.176C341.341 118.176 366.382 99.2367 366.694 98.9998C366.968 98.7879 367.018 98.4014 366.806 98.127C366.594 97.8527 366.207 97.8029 365.933 98.0148C365.546 98.3141 326.656 127.702 297.235 112.653C296.923 112.491 296.549 112.615 296.399 112.927C296.237 113.239 296.362 113.613 296.674 113.763C302.85 116.917 309.413 118.176 315.951 118.176H315.938Z" fill="white"/>
</svg>
